<svg xmlns="http://www.w3.org/2000/svg" width="141" height="50" fill="none"><mask id="a" width="37" height="32" x="0" y="18.006" fill="#000" maskUnits="userSpaceOnUse"><path fill="#fff" d="M0 18.006h37v32H0z"/><path d="m15.19 20.283.565.375c.557.116 1.098.207 1.661.28l.552.074c2.516.295 5.05.354 7.58.45 2.652.102 5.287.257 7.929.507q.012.656 0 1.31c-.355.354-.948.318-1.426.387l-.684.1-.53.076.378.257.377.304v.375h.565v.374h.377c.495.445.495.445.943.937v.374h.377c.943 1.026.943 1.026.943 1.499h.377l.377.936c-.295.293-.295.293-.754.562-.897-.033-1.545-.21-2.263-.75v-.374l-.403-.139c-.614-.268-1.098-.61-1.635-1.008l-.558-.411-.42-.315.471.539c.471.538.471.538.471.96h.377c.393.43.74.888 1.098 1.347q.394.505.81.992l.367.435.336.39c.217.394.217.394.17.9-.141.43-.141.43-.33.617-1.078.105-1.607-.082-2.45-.749-.354-.304-.354-.304-.566-.561v-.375l-.317-.134c-.544-.3-.949-.675-1.404-1.095-.601-.576-.601-.576-1.296-1.018v-.375l-.336-.072c-.786-.216-1.486-.678-2.195-1.073-.663-.363-1.23-.634-1.994-.728l.256.282q.539.602 1.064 1.217.135.15.271.305c1.393 1.721 1.755 4.287 1.614 6.436-.153.668-.153.668-.377 1.124l-.565.187-.377-.187-.035.597c-.185.86-.406 1.114-1.096 1.65-.435.223-.86.392-1.32.562l.2.351.177.398-.189.375H21.6c-.422.39-.695.892-.99 1.381l-.26.43c-.675 1.226-.758 2.209-.665 3.58.073 1.16-.156 1.93-.913 2.849-.724-.103-1.171-.293-1.757-.725l-.447-.326-.459-.342-.909-.666-.403-.3q-.456-.328-.927-.637v-.375h-.565v-.374l-.943-.375c.265-.839.638-1.314 1.32-1.873.496-.225.99-.39 1.508-.562l.189-.187.648-.058c.684-.051.684-.051.942-.515l.107-.363h.377l.035-.375c.185-.677.518-1.13.933-1.692l.163-.368c-.164-.397-.164-.397-.377-.749l.188-.374h.943l-.436-.89-.245-.5c-.246-.486-.246-.486-.576-.884-.251-.348-.251-.348-.251-.91h-.378l-.27-.48c-.79-1.241-2.378-1.884-3.672-2.501-1.37-.705-2.62-1.596-3.81-2.566-.736-.539-1.534-.541-2.417-.537-1.209.19-2.221.967-3.064 1.82-.34.331-.718.684-.718.684 0-.127 0 .124 0 0-.124 0 .128 0 0 0-.062.185-.436.309-.5.5-.342.342-.407.425-.82.774l-.412.353c-.342.267-.342.267-.53.267a183 183 0 0 1-.114-3.908q-.015-.663-.043-1.328c-.154-3.88-.154-3.88.589-4.777a8 8 0 0 1 1.642-1.036q.551-.363 1.095-.737c2.803-1.782 7.837-1.167 10.782.175m2.073 7.117c-.211.59-.211.59-.189 1.31.37.522.802.936 1.32 1.312h.377v.561h.377v.375h.377c.203.38.372.728.487 1.143.155.48.279.75.645 1.104.695.147 1.34.176 2.051.181.588.006.588.006.965.194-.285-1.616-.68-2.623-1.885-3.746l-.426-.44C20.248 28.3 18.897 27.4 17.263 27.4"/></mask><path fill="#fff" d="m15.19 20.283.565.375c.557.116 1.098.207 1.661.28l.552.074c2.516.295 5.05.354 7.58.45 2.652.102 5.287.257 7.929.507q.012.656 0 1.31c-.355.354-.948.318-1.426.387l-.684.1-.53.076.378.257.377.304v.375h.565v.374h.377c.495.445.495.445.943.937v.374h.377c.943 1.026.943 1.026.943 1.499h.377l.377.936c-.295.293-.295.293-.754.562-.897-.033-1.545-.21-2.263-.75v-.374l-.403-.139c-.614-.268-1.098-.61-1.635-1.008l-.558-.411-.42-.315.471.539c.471.538.471.538.471.96h.377c.393.43.74.888 1.098 1.347q.394.505.81.992l.367.435.336.39c.217.394.217.394.17.9-.141.43-.141.43-.33.617-1.078.105-1.607-.082-2.45-.749-.354-.304-.354-.304-.566-.561v-.375l-.317-.134c-.544-.3-.949-.675-1.404-1.095-.601-.576-.601-.576-1.296-1.018v-.375l-.336-.072c-.786-.216-1.486-.678-2.195-1.073-.663-.363-1.23-.634-1.994-.728l.256.282q.539.602 1.064 1.217.135.15.271.305c1.393 1.721 1.755 4.287 1.614 6.436-.153.668-.153.668-.377 1.124l-.565.187-.377-.187-.035.597c-.185.86-.406 1.114-1.096 1.65-.435.223-.86.392-1.32.562l.2.351.177.398-.189.375H21.6c-.422.39-.695.892-.99 1.381l-.26.43c-.675 1.226-.758 2.209-.665 3.58.073 1.16-.156 1.93-.913 2.849-.724-.103-1.171-.293-1.757-.725l-.447-.326-.459-.342-.909-.666-.403-.3q-.456-.328-.927-.637v-.375h-.565v-.374l-.943-.375c.265-.839.638-1.314 1.32-1.873.496-.225.99-.39 1.508-.562l.189-.187.648-.058c.684-.051.684-.051.942-.515l.107-.363h.377l.035-.375c.185-.677.518-1.13.933-1.692l.163-.368c-.164-.397-.164-.397-.377-.749l.188-.374h.943l-.436-.89-.245-.5c-.246-.486-.246-.486-.576-.884-.251-.348-.251-.348-.251-.91h-.378l-.27-.48c-.79-1.241-2.378-1.884-3.672-2.501-1.37-.705-2.62-1.596-3.81-2.566-.736-.539-1.534-.541-2.417-.537-1.209.19-2.221.967-3.064 1.82-.34.331-.718.684-.718.684 0-.127 0 .124 0 0-.124 0 .128 0 0 0-.062.185-.436.309-.5.5-.342.342-.407.425-.82.774l-.412.353c-.342.267-.342.267-.53.267a183 183 0 0 1-.114-3.908q-.015-.663-.043-1.328c-.154-3.88-.154-3.88.589-4.777a8 8 0 0 1 1.642-1.036q.551-.363 1.095-.737c2.803-1.782 7.837-1.167 10.782.175m2.073 7.117c-.211.59-.211.59-.189 1.31.37.522.802.936 1.32 1.312h.377v.561h.377v.375h.377c.203.38.372.728.487 1.143.155.48.279.75.645 1.104.695.147 1.34.176 2.051.181.588.006.588.006.965.194-.285-1.616-.68-2.623-1.885-3.746l-.426-.44C20.248 28.3 18.897 27.4 17.263 27.4"/><path fill="#E76F51" d="m15.19 20.283.551-.834-.065-.043-.072-.033zm.565.375-.552.834.16.105.187.04zm1.661.28.13-.99zm.552.074-.13.991.014.002zm7.58.45.039-.999zm7.929.507 1-.018-.017-.894-.889-.084zm0 1.31.705.71.287-.286.008-.406zm-1.426.387-.143-.99h-.002zm-.684.1.14.99h.005zm-.53.076-.14-.99-2.551.362 2.127 1.453zm.378.257.628-.778-.032-.025-.033-.023zm.377.304h1v-.478l-.372-.3zm0 .375h-1v1h1zm.565 0h1v-1h-1zm0 .374h-1v1h1zm.377 0 .669-.743-.286-.257h-.383zm.943.937h1v-.387l-.26-.287zm0 .374h-1v1h1zm.377 0 .736-.676-.297-.324h-.44zm.943 1.499h-1v1h1zm.377 0 .927-.374-.252-.626h-.675zm.377.936.704.71.471-.468-.248-.616zm-.754.562-.036 1 .29.01.251-.147zm-2.263-.75h-1v.5l.399.3zm0-.374h1v-.713l-.674-.232zm-.403-.139-.4.917.037.015.037.013zm-1.635-1.008.596-.803-.003-.002zm-.558-.411-.599.8.006.005zm-.42-.315.599-.8-1.352 1.459zm.471.539.752-.659zm.471.96h-1v1h1zm.377 0 .738-.675-.297-.325h-.44zm1.098 1.347-.79.614.002.002zm.81.992.764-.645-.004-.005zm.367.435-.765.645.008.008zm.336.39.876-.483-.05-.092-.069-.079zm.17.9.95.31.035-.106.01-.11zm-.33.617.097.996.355-.035.253-.251zm-2.45-.749-.653.758.016.014.016.013zm-.566-.561h-1v.358l.228.277zm0-.375h1v-.663l-.61-.258zm-.317-.134-.482.876.045.025.048.02zm-1.404-1.095-.691.722.006.006.007.007zm-1.296-1.018h-1v.548l.463.295zm0-.375h1v-.807l-.789-.17zm-.336-.072-.264.964.026.007.028.006zm-2.195-1.073.488-.873-.008-.005zm-1.994-.728.122-.992-2.67-.327 1.808 1.991zm.256.282.745-.667-.004-.005zm1.064 1.217-.758.651.005.006.005.006zm.271.305.777-.629-.014-.017-.014-.017zm1.614 6.436.975.224.018-.078.005-.08zm-.377 1.124.315.95.398-.133.185-.377zm-.565.187-.445.896.369.183.39-.13zm-.377-.187.445-.895-1.354-.673-.09 1.509zm-.035.597.977.21.016-.075.005-.076zm-1.096 1.65.455.89.084-.042.074-.058zm-1.32.562-.347-.938-1.106.41.584 1.024zm.2.351.914-.406-.02-.046-.025-.043zm.177.398.893.45.213-.423-.192-.433zm-.189.375v1h.617l.277-.55zm-.754 0v-1h-.39l-.288.265zm-.99 1.381.856.517.001-.001zm-.26.43-.855-.517-.01.017-.01.018zm-.665 3.58.998-.063v-.005zM18.771 48l-.141.99.556.08.357-.434zm-1.757-.725.594-.805-.005-.003zm-.447-.326-.598.802.009.006zm-.459-.342.598-.802-.006-.004zm-.909-.666-.595.803.004.003zm-.403-.3.596-.803-.007-.005zm-.927-.637h-1v.537l.448.296zm0-.375h1v-1h-1zm-.565 0h-1v1h1zm0-.374h1v-.68l-.63-.25zm-.943-.375-.953-.302-.281.888.865.343zm1.32-1.873-.413-.91-.12.054-.101.083zm1.508-.562.315.95.223-.074.167-.166zm.189-.187-.09-.996-.36.033-.255.254zm.648-.058-.074-.998h-.008l-.008.002zm.942-.515.874.486.055-.098.031-.108zm.107-.363v-1h-.75l-.21.72zm.377 0v1h.91l.085-.906zm.035-.375-.965-.263-.023.083-.008.086zm.933-1.692.804.595.066-.09.044-.1zm.163-.368.914.405.173-.391-.163-.396zm-.377-.749-.893-.45-.25.494.287.474zm.188-.374v-1h-.616l-.277.55zm.943 0v1h1.598l-.699-1.438zm-.436-.89-.898.44.001.002zm-.245-.5.898-.44-.006-.011zm-.576-.884-.811.585.02.027.021.027zm-.251-.91h1v-1h-1zm-.378 0-.87.492.287.508h.584zm-.27-.48.87-.492-.012-.022-.015-.022zm-3.672-2.501-.457.89.013.006.014.006zM9.7 28.033l.63-.775-.02-.016-.02-.015zm-2.417-.537-.005-1H7.2l-.075.013zm-3.064 1.82.696.718.008-.007.008-.008zM3 30.5l.707.707.166-.166.075-.223zm-.82.774-.646-.763-.004.004zm-.412.353.616.788.017-.014.018-.014zm-.53.267-1 .04.04.96h.96zm-.114-3.908 1-.019v-.004zm-.043-1.328-.999.04v.001zm.589-4.777-.634-.773-.075.061-.06.074zm1.642-1.036.44.898.057-.028.053-.035zm1.095-.737-.536-.844-.016.01-.015.01zM17.263 27.4v-1h-.704l-.238.663zm-.189 1.31-.999.032.01.3.173.246zm1.32 1.312-.587.81.263.19h.324zm.377 0h1v-1h-1zm0 .561h-1v1h1zm.377 0h1v-1h-1zm0 .375h-1v1h1zm.377 0 .883-.471-.283-.529h-.6zm.487 1.143-.964.267.006.021.006.021zm.645 1.104-.697.718.207.2.283.06zm2.051.181.012-1h-.004zm.965.194-.445.895 1.773.881-.343-1.95zm-1.885-3.746-.719.696.018.018.02.018zm-.426-.44.719-.695-.01-.009-.008-.009zm-6.173-9.11-.552.833.566.375.552-.834.552-.834q-.288-.189-.566-.375zm.566.374-.205.979c.584.122 1.15.216 1.736.293l.13-.991.13-.992a21 21 0 0 1-1.586-.268zm1.661.28-.13.992.552.073.13-.991.13-.992-.551-.073zm.552.074-.116.993c2.565.301 5.151.361 7.658.457l.038-1 .039-.999c-2.553-.097-5.036-.155-7.502-.445zm7.58.45-.038 1c2.638.1 5.254.254 7.873.502l.094-.995.094-.996c-2.665-.252-5.32-.408-7.984-.51zm7.929.507-1 .018q.012.637 0 1.275l1 .018 1 .017q.012-.672 0-1.346zm0 1.31-.705-.709c.037-.037.041-.006-.133.024a4 4 0 0 1-.306.036c-.114.01-.273.024-.425.046l.143.99.143.99c.088-.013.182-.021.324-.034.128-.012.294-.028.463-.058.33-.057.808-.185 1.2-.575zm-1.426.387-.145-.99c-.226.034-.451.067-.684.1l.145.99.145.99q.347-.052.684-.1zm-.684.1-.141-.99-.53.076.141.99.141.99.53-.076zm-.53.076-.564.825.378.258.564-.826.563-.826-.377-.257zm.378.257-.629.778.378.305.628-.779.628-.778-.377-.304zm.377.304h-1v.374h2v-.374zm0 .375v1h.565v-2h-.566zm.565 0h-1v.374h2v-.374zm0 .374v1h.377v-2h-.376zm.377 0-.668.744c.254.229.356.321.453.416.096.096.188.197.419.45l.739-.673.74-.674a10 10 0 0 0-1.014-1.006zm.943.937h-1v.374h2v-.374zm0 .374v1h.376v-2h-.376zm.377 0-.736.677c.239.26.406.442.528.582.127.145.172.207.186.23.001.002-.023-.042-.035-.104-.004-.022 0-.03 0 .114h2c0-.093.003-.278-.03-.465a1.7 1.7 0 0 0-.242-.61c-.18-.286-.504-.632-.935-1.1zm.943 1.499v1h.377v-2h-.377zm.377 0-.928.373.377.936.928-.373.927-.374-.377-.936zm.377.936-.705-.71c-.162.161-.182.178-.208.198-.039.029-.095.064-.347.21l.506.864.505.863c.208-.122.382-.222.531-.333.163-.122.29-.25.422-.383zm-.754.562.036-1c-.74-.026-1.178-.157-1.697-.548l-.602.799-.601.799c.916.69 1.775.911 2.828.95zm-2.263-.75h1v-.373h-2v.374zm0-.374.326-.945-.402-.14-.327.946-.326.945.403.14zm-.403-.139.4-.916c-.503-.22-.91-.502-1.44-.895l-.595.803-.596.803c.545.404 1.105.805 1.831 1.122zm-1.635-1.008.593-.805-.557-.41-.594.804-.593.805.557.41zm-.558-.411.6-.8-.421-.315-.6.8-.598.801.42.315zm-.42-.315-.753.659.472.538.752-.658.752-.659-.47-.538zm.471.539-.752.659c.123.14.195.223.246.286s.04.059.02.02a.5.5 0 0 1-.044-.15v.027l.001.118h2c0-.158.019-.511-.161-.877a2 2 0 0 0-.259-.393c-.082-.102-.186-.22-.299-.349zm.471.96v1h.377v-2h-.377zm.377 0-.738.674c.36.393.676.812 1.047 1.287l.789-.614.789-.614c-.345-.443-.722-.942-1.149-1.408zm1.098 1.347-.788.616q.406.52.838 1.026l.76-.65.76-.65a28 28 0 0 1-.783-.958zm.81.992-.764.645.366.435.765-.645.764-.645-.367-.435zm.367.435-.757.653.336.39.757-.654.757-.653-.336-.39zm.336.39-.876.482c.06.11.083.151.096.18.007.014-.009-.017-.018-.07-.01-.047-.006-.072-.007-.034a6 6 0 0 1-.021.247l.995.094.996.095c.018-.19.056-.486.002-.771-.058-.305-.211-.561-.291-.706zm.17.9-.951-.311-.075.225c-.017.047-.017.04-.004.016a.5.5 0 0 1 .056-.083l-.009.01-.051.051.704.71.705.709c.074-.074.236-.224.36-.457.093-.175.16-.39.215-.56zm-.33.617-.097-.995c-.468.046-.721.018-.916-.044-.203-.063-.433-.19-.818-.494l-.62.784-.62.785c.46.363.915.662 1.458.833.55.173 1.1.186 1.71.127zm-2.45-.749.652-.757a7 7 0 0 1-.284-.25 3 3 0 0 1-.162-.19l-.772.636-.772.635c.098.12.184.225.297.337.102.102.224.206.388.347zm-.566-.561h1v-.375h-2v.375zm0-.375.39-.921-.317-.134-.39.921-.39.921.317.134zm-.317-.134.482-.876c-.42-.232-.74-.522-1.207-.954l-.679.735-.678.735c.443.409.933.87 1.6 1.236zm-1.404-1.095.692-.722c-.287-.275-.478-.46-.687-.623-.21-.165-.432-.306-.764-.517l-.537.844-.537.843c.363.231.488.312.603.402s.225.195.539.495zm-1.296-1.018h1v-.374h-2v.374zm0-.375.211-.977-.336-.073-.21.978-.211.977.335.073zm-.336-.072.265-.965c-.633-.173-1.171-.534-1.972-.982l-.488.874-.487.873c.616.344 1.478.906 2.418 1.164zm-2.195-1.073.48-.878c-.69-.377-1.393-.725-2.352-.842l-.122.992-.121.993c.57.07 1 .264 1.636.612zm-1.994-.728-.74.672.255.282.741-.672.74-.672-.255-.282zm.256.282-.745.667q.528.592 1.051 1.201l.758-.651.758-.652a81 81 0 0 0-1.077-1.232zm1.064 1.217-.748.663q.134.15.27.306l.75-.664.748-.663-.271-.306zm.271.305-.777.63c1.162 1.435 1.527 3.697 1.394 5.741l.998.066.997.065c.148-2.255-.21-5.124-1.834-7.13zm1.614 6.436-.974-.223a7 7 0 0 1-.135.546 3 3 0 0 1-.165.36l.897.441.898.44c.104-.212.193-.389.266-.605.066-.198.117-.424.188-.735zm-.377 1.124-.314-.95-.566.188.315.95.314.949.566-.188zm-.565.187.445-.895-.377-.187-.445.895-.445.896.377.187zm-.377-.187-.998-.059-.036.597.999.06.998.058.035-.597zm-.035.597-.978-.21c-.08.375-.147.506-.203.588-.069.099-.185.215-.53.483l.615.79.613.789c.347-.27.686-.548.947-.925.273-.395.41-.82.513-1.305zm-1.096 1.65-.456-.89c-.382.196-.764.349-1.211.514l.347.938.347.938c.472-.175.941-.36 1.428-.61zm-1.32.562-.869.496.2.35.87-.495.868-.495-.2-.351zm.2.351-.914.406.177.398.914-.406.914-.406-.177-.398zm.177.398-.893-.45-.189.375.893.45.894.45.188-.375zm-.189.375v-1H21.6v2h.754zm-.754 0-.678-.735c-.554.511-.91 1.172-1.168 1.6l.857.516.856.516c.332-.55.52-.894.811-1.162zm-.99 1.381-.855-.517c-.13.213-.13.213-.26.43l.855.518.856.517.26-.43zm-.26.43-.875-.482c-.802 1.454-.889 2.65-.787 4.13l.997-.068.998-.068c-.086-1.264-.006-2.033.543-3.029zm-.665 3.58-.998.063c.032.5-.006.852-.1 1.151-.095.299-.265.61-.586.999l.771.636.772.636c.436-.529.758-1.062.95-1.669.19-.604.23-1.218.19-1.879zM18.771 48l.142-.99c-.555-.08-.848-.202-1.305-.54l-.594.805-.594.805c.714.527 1.316.782 2.21.91zm-1.757-.725.59-.808-.448-.326-.589.808-.589.808.447.326zm-.447-.326.598-.802-.46-.342-.597.802-.597.802.458.342zm-.459-.342.592-.806-.91-.667-.59.807-.592.806.909.666zm-.909-.666.596-.803-.403-.3-.596.803-.596.803.404.3zm-.403-.3.589-.808a26 26 0 0 0-.963-.663l-.553.834-.552.833c.31.205.605.405.89.612zm-.927-.637h1v-.374h-2v.374zm0-.375v-1h-.565v2h.565zm-.565 0h1v-.375h-2v.375zm0-.374.37-.93-.944-.374-.369.929-.37.93.944.374zm-.943-.375.954.302c.195-.617.435-.938 1-1.402l-.634-.773-.634-.773c-.798.655-1.304 1.284-1.64 2.344zm1.32-1.873.413.91c.44-.199.887-.35 1.41-.522l-.315-.95-.314-.949c-.514.17-1.056.35-1.607.6zm1.508-.562.705.71.188-.187-.704-.71-.705-.71-.189.188zm.189-.187.09.996.648-.058-.09-.996-.09-.996-.648.058zm.648-.058.074.997c.157-.012.325-.024.467-.044.146-.021.356-.062.57-.178.231-.127.383-.296.486-.441.086-.122.165-.266.219-.363l-.874-.486-.873-.487-.076.134-.025.042a.627.627 0 0 1 .293-.2c.017-.005.02-.004-.004 0l-.118.012-.213.016zm.942-.515.96.28.106-.363-.96-.28-.96-.28-.105.362zm.107-.363v1h.377v-2h-.378zm.377 0 .995.094.036-.375-.996-.094-.996-.094-.035.375zm.035-.375.965.263c.129-.474.35-.79.772-1.36l-.804-.595-.804-.595c-.409.553-.854 1.144-1.094 2.024zm.933-1.692.914.405.163-.368-.914-.405-.915-.404-.162.368zm.163-.368.924-.382c-.076-.184-.133-.324-.201-.459-.069-.136-.146-.262-.245-.426l-.855.518-.856.518c.114.188.144.238.17.29s.051.111.139.323zm-.377-.749.893.45.188-.375-.893-.45-.893-.45-.189.375zm.188-.374v1h.943v-2h-.943zm.943 0 .9-.438q-.22-.448-.44-.894l-.896.442-.897.442q.219.443.433.885zm-.436-.89.898-.44-.245-.5-.898.44-.898.44.245.5zm-.245-.5.892-.452c-.113-.223-.202-.402-.31-.569-.111-.17-.237-.319-.389-.502l-.77.639-.769.639c.179.215.218.265.252.316.035.054.069.118.201.38zm-.576-.884.81-.585-.073-.104-.03-.043c0-.001.021.035.037.09.012.047.01.066.007.016a7 7 0 0 1-.002-.284h-2c0 .131 0 .263.005.377.005.118.018.265.062.424.09.323.281.567.373.694zm-.251-.91v-1h-.378v2h.378zm-.378 0 .871-.492-.27-.48-.872.492-.87.492.27.48zm-.27-.48.843-.536c-.513-.808-1.256-1.376-1.977-1.807-.71-.425-1.502-.772-2.107-1.06l-.43.902-.431.902c.688.329 1.338.612 1.942.973.595.355 1.04.729 1.316 1.162zm-3.672-2.501.458-.89c-1.287-.662-2.478-1.507-3.637-2.451l-.632.775-.631.776c1.222.995 2.531 1.931 3.985 2.68zM9.7 28.033l.59-.806c-1.037-.76-2.167-.735-3.012-.73l.005 1 .005 1c.92-.006 1.386.025 1.82.343zm-2.417-.537-.156-.987c-1.53.24-2.732 1.206-3.62 2.105l.712.702.712.703c.797-.808 1.62-1.395 2.507-1.535zm-3.064 1.82-.696-.717a56 56 0 0 1-.643.612l-.046.044-.012.011-.003.003h-.001L3.5 30l.683.73.002-.001.003-.003.013-.012.218-.205c.138-.131.32-.305.495-.475zM3.5 30h-1v.035h2v-.072h-2V30zh1v-.037h-2v.072h2V30zm0 0v-1h-.035v2h.072v-2H3.5zv1h.037v-2h-.072v2H3.5zm0 0-.948-.318c.065-.195.18-.292.18-.293l-.062.045c-.044.031-.151.106-.25.197a1.3 1.3 0 0 0-.368.55L3 30.5l.948.318c-.063.188-.172.283-.175.286-.009.008-.007.004.059-.042.041-.03.148-.104.245-.192.09-.082.275-.264.371-.552zm-.5.5-.707-.707c-.354.354-.385.402-.759.718l.646.763.646.763c.452-.382.552-.5.881-.83zm-.82.774-.65-.76-.413.354.65.76.652.759.412-.354zm-.412.353-.616-.788-.109.085-.068.052-.021.015q.002-.002.042-.023a.7.7 0 0 1 .269-.074h-.027v2c.079 0 .353.013.657-.14a2 2 0 0 0 .265-.167c.066-.048.143-.109.224-.172zm-.53.267.999-.04a182 182 0 0 1-.113-3.887l-1 .02-1 .018q.036 1.964.115 3.93zm-.114-3.908 1-.023q-.016-.672-.044-1.345l-.999.04-.999.041q.027.656.042 1.31zm-.043-1.328 1-.04c-.08-1.994-.11-2.852-.05-3.345.026-.202.06-.28.09-.334.046-.085.117-.176.319-.42l-.77-.638-.77-.638c-.17.204-.377.45-.534.737-.175.32-.27.653-.32 1.048-.085.7-.039 1.784.036 3.67zm.589-4.777.634.773a7 7 0 0 1 1.447-.91l-.44-.899-.44-.898a9 9 0 0 0-1.835 1.161zm1.642-1.036.55.835q.559-.367 1.113-.749l-.568-.823-.567-.824q-.534.367-1.079.726zm1.095-.737.537.844c1.151-.732 2.869-1.023 4.75-.929 1.863.093 3.732.556 5.08 1.17l.415-.91.415-.91c-1.597-.728-3.717-1.243-5.81-1.348-2.072-.103-4.272.19-5.923 1.239zM17.263 27.4l-.942-.337c-.094.263-.189.516-.23.802-.039.27-.026.555-.016.877l1-.031.999-.032c-.013-.398-.011-.473-.003-.53.006-.042.016-.085.134-.413zm-.189 1.31-.816.578a6.6 6.6 0 0 0 1.55 1.543l.586-.81.587-.81a4.6 4.6 0 0 1-1.09-1.078zm1.32 1.312v1h.377v-2h-.376zm.377 0h-1v.561h2v-.561zm0 .561v1h.377v-2h-.376zm.377 0h-1v.375h2v-.375zm0 .375v1h.377v-2h-.377zm.377 0-.882.47c.192.36.32.632.405.94l.964-.267.963-.266c-.144-.523-.355-.95-.567-1.348zm.487 1.143-.952.31c.083.253.177.517.323.777.152.273.34.504.577.735l.697-.718.696-.717a1.2 1.2 0 0 1-.225-.277 2.3 2.3 0 0 1-.166-.419zm.645 1.104-.207.979c.795.168 1.52.197 2.251.202l.007-1 .008-1c-.69-.005-1.257-.033-1.853-.16zm2.051.181-.01 1c.152.002.244.003.313.006.065.003.074.006.062.003-.035-.006-.065-.03.155.08l.445-.895.445-.896c-.156-.078-.376-.194-.651-.25-.236-.047-.5-.045-.747-.048zm.965.194.985-.174c-.149-.845-.338-1.603-.68-2.317-.349-.725-.831-1.355-1.509-1.986l-.681.731-.682.732c.528.492.846.926 1.068 1.389.228.474.378 1.027.514 1.798zm-1.885-3.746.718-.695-.425-.44-.719.696-.718.695.425.44zm-.426-.44.7-.713c-1.185-1.165-2.777-2.281-4.799-2.281v2c1.245 0 2.356.684 3.398 1.708z" mask="url(#a)"/><path fill="#E76F51" d="m122.724 15.145.428-.023c.664.157.936.541 1.386 1.041.338.57.338.57.642 1.2l.168.344c.607 1.257 1.179 2.53 1.747 3.805l.614 1.37.298.668c.399.88.812 1.754 1.228 2.627.205.474.205.474.205.848h.377l.137-.455c.297-.825.677-1.592 1.065-2.377.916-1.874 1.744-3.78 2.548-5.704 1.101-2.604 1.101-2.604 2.095-3.262.86-.138 1.512-.111 2.262.34.587.636.589 1.155.584 1.984l-.002.63-.004.682-.003.707q-.005 1.497-.013 2.994c-.318 5.144-.318 5.144.758 10.08.467.245.467.245.943.374.292.29.234.569.247.971-.011.876-.22 1.356-.813 2.025-.682.581-1.334.685-2.21.65-.795-.162-1.265-.58-1.749-1.211-.806-1.483-.962-3-1.002-4.664l-.047-1.692-.025-.875-.057-2.133-.265.59q-.49 1.086-.983 2.17-.213.467-.423.938l-.612 1.35-.189.422c-.339.738-.649 1.314-1.299 1.833-.643.151-1.237.117-1.885 0-1.571-1.04-2.256-3.612-2.982-5.267l-.286-.65-.692-1.574-.025.426q-.062.975-.128 1.95l-.04.67c-.176 2.55-.478 5.087-2.47 6.88-1.235 1.032-2.781.854-4.312.75-1.165-.296-1.85-1.273-2.451-2.248-.586-1.19-.581-2.713-.177-3.968.47-1.07 1.259-1.897 2.192-2.587.968-.29 2.33-.463 3.264 0l-.004-.42q-.017-1.964-.026-3.926-.004-1.01-.013-2.019-.008-.975-.011-1.949-.003-.55-.01-1.103v-.681l-.004-.599c.079-.627.256-.97.633-1.476.57-.377.739-.437 1.391-.456m-3.653 16.562v.936l.566.188c.546-.449.66-.808.754-1.499-.586 0-.821.101-1.32.375M18.583.058c.46.292.46.292.754.749.09.712.128 1.126-.288 1.726l-.278.334a190 190 0 0 0 3.582 6.554c.645 0 1.035-.553 1.485-.971l.303-.274c.591-.543 1.155-1.084 1.606-1.751A32 32 0 0 0 25.37 5.3c.227-.552.436-.842.919-1.194.532-.155.82-.111 1.343.07.567.411.733.62.849 1.312-.114.678-.305.898-.849 1.31h-.377c-.205 2.315-.406 4.628-.5 6.95a9 9 0 0 1-.254 1.852H9.345C8.59 8.485 8.59 8.485 8.59 6.8l-.447-.046c-.495-.14-.495-.14-.754-.445-.171-.646-.095-1.113.07-1.756.417-.475.686-.549 1.308-.667.664.121.96.346 1.365.882.192.428.162.672.085 1.131l-.118.714c.247.356.247.356.565.562v.375h.377v.374l.319.129c.555.313.934.73 1.378 1.182l.566.375a9 9 0 0 0 .565-1.311h.377l.056-.313c.167-.549.44-.953.758-1.431.384-.586.764-1.169 1.107-1.78.243-.424.488-.816.766-1.217.364-.455.364-.455.33-.878l-.389-.316c-.365-.433-.365-.433-.353-1.1.176-.644.176-.644.389-1.006.576-.325 1.026-.278 1.673-.2"/><path fill="#fff" d="M79.243 15.145c.69.013 1.117.075 1.662.503 1.058 1.186.723 3.137.648 4.635a167 167 0 0 1-.283 3.079c-.584 4.682-.584 4.682.094 9.281.454.324.454.324.943.562.47.702.413 1.024.306 1.83-.178.633-.555.952-1.06 1.354l-.189.187c-.956.097-1.796.161-2.64-.328-.337-.377-.64-.764-.942-1.17l-.297.233-.398.305-.391.303c-1.351.904-3 .837-4.57.657-1.614-.435-2.61-1.502-3.482-2.868-1.226-2.205-1.273-4.718-.703-7.136.588-1.776 1.737-3.354 3.357-4.341.4-.18.785-.327 1.205-.45l.566-.187c.49-.023.971-.035 1.461-.035l.395-.007c.895-.002 1.63.137 2.48.417l-.009-.484q-.015-.893-.022-1.785l-.012-.771q-.009-.555-.012-1.112l-.01-.674c.127-1.186.685-1.967 1.903-1.998M72.362 26.44c-.923 1.274-.952 2.622-.801 4.143.262.93.675 1.891 1.508 2.435.787.116 1.2.061 1.909-.304.583-.479 1.058-.953 1.484-1.569l.269-.377c.904-1.486.762-3.005.674-4.68-2.002-1.14-3.312-1.445-5.043.352"/><path fill="#E76F51" d="M42.09 15.25c.793.639 1.024 1.407 1.14 2.387q.047.562.086 1.125l.045.625c.129 2.026.143 4.052.144 6.081v.481c0 4.834 0 4.834-.413 6.882h2.828l-.754-.937c-.183-1.067-.148-2.092.283-3.09 1.036-1.029 1.784-1.463 3.287-1.521 1.378.054 2.385.363 3.334 1.38.875 1.143.935 2.217.826 3.606-.24 1.323-.86 2.311-1.886 3.184-1.57.986-3.131 1.377-4.972 1.357l-.495-.002a28 28 0 0 1-3.715-.302c-.608-.087-.971-.126-1.564.07-1.711.187-1.711.187-2.455-.196-.56-.46-.902-.836-.997-1.556-.053-1.155.046-1.833.813-2.715.555-.316 1.068-.228 1.696-.215.155-1.843.233-3.674.236-5.524l.002-.398c.004-2.248-.155-4.451-.43-6.682-.345-2.863-.345-2.863.357-3.77.82-.6 1.674-.656 2.605-.27m6.47 15.708-.159.315-.784 1.558c.689-.234.901-.313 1.32-.937-.06-.495-.06-.495-.189-.936z"/><path fill="#fff" d="M122.83 16.151c.779.269.913.625 1.331 1.323.229.472.446.94.654 1.42l.182.41.382.87c1.085 2.477 2.2 4.932 3.41 7.352l.262.53.229.455c.16.387.16.387.16.949h.377l.128-.437c.339-.932.786-1.8 1.227-2.688 1.141-2.317 2.161-4.678 3.156-7.06l.344-.815.154-.375c.313-.736.659-1.338 1.213-1.922.483-.093.483-.093.943 0 .306.207.306.207.565.562.073.572.073.572.076 1.283l.004.393q.005.645.003 1.29l.008.901q.01 1.189.013 2.378.008 1.893.023 3.787.004.657.005 1.315c.007 1.555.113 3.044.434 4.571l.106.53.082.407 1.132.187c-.049.713-.11 1.041-.613 1.569-.578.338-.808.45-1.461.304-1.107-.75-1.388-1.936-1.697-3.184-.102-.88-.114-1.75-.115-2.636l-.009-.734q-.012-.952-.015-1.906-.007-.978-.019-1.955a607 607 0 0 1-.031-3.818l-.247.556c-2.731 6.15-2.731 6.15-3.877 8.55l-.227.48c-.503 1.042-.503 1.042-.928 1.463-.436.117-.436.117-.942 0-.88-1.045-1.368-2.4-1.897-3.64-1.06-2.44-2.208-4.834-3.382-7.222l-.011.626q-.023 1.17-.049 2.34l-.02 1.006c-.128 7.127-.128 7.127-2.371 9.572-.776.647-1.723.565-2.698.555-.947-.099-1.44-.589-2.063-1.259-.692-1.007-.867-1.897-.707-3.101.36-1.176 1.082-1.92 2.074-2.622.601-.298 1.232-.26 1.886-.188.377.223.377.223.565.562.059.48.059.48 0 .937-.377.374-.377.374-1.025.55-.747.22-.747.22-1.237.76-.089.408-.089.408-.071.843l-.004.44c.093.5.231.664.64.965.652.125.652.125 1.32 0 1.36-1.241 1.37-3.332 1.508-5.057.038-.952.032-1.9.017-2.853l-.005-.777q-.012-1.624-.034-3.25-.011-1.002-.017-2.006-.005-.562-.015-1.126l-.004-.687-.007-.604c.065-.495.065-.495.317-.844.314-.213.314-.213.868-.225M112.119 22.449c1.551 1.269 2.642 2.779 2.993 4.763.264 2.89-.099 5.132-1.886 7.491-.962 1.083-2.527 1.857-3.959 2.06-1.461.09-2.842.159-4.148-.561l-.427-.235c-1.053-.636-1.753-1.35-2.401-2.387l-.223-.356c-1.204-2.144-1.139-4.819-.531-7.135.576-1.716 2.014-3.27 3.593-4.14 2.177-.994 5.001-.854 6.989.5m-6.186 3.675c-.824.995-1.121 2.181-1.067 3.462.194 1.302.691 2.428 1.763 3.233.675.358 1.315.444 2.073.386 1.2-.39 1.798-1.213 2.415-2.27.477-1.23.409-2.671-.071-3.886-.476-.933-1.216-1.617-2.156-2.084-1.357-.13-1.941.337-2.957 1.159"/><path fill="#E76F51" d="M56.1 21.594c.578.457.578.457.944.937l.188.187c.182 1.321.202 2.653.187 3.985l-.004.4q-.01.82-.027 1.638-.011.607-.016 1.215l-.013.72c.068.726.24 1.166.627 1.78.536.423.536.423 1.167.41 1.186-.367 1.826-1.22 2.436-2.268.81-1.67.64-3.49.623-5.3q-.003-.654.004-1.308l-.01-.402c.008-.731.096-1.033.565-1.609.68-.53 1.095-.518 1.93-.478.688.143.99.476 1.392 1.03.227.676.224 1.297.224 2.001v.428a20 20 0 0 1-.236 2.85c-.23 1.632-.393 3.505.39 5.02l.494.223c.448.34.448.34.542.75.04.843.007 1.461-.542 2.13-.797.735-1.376.716-2.436.71-.51-.067-.51-.067-1.087-.512l-.365-.491-.377-.375-.59.445c-1.442 1.089-3.158 1-4.878.866-1.284-.294-2.108-.981-2.828-2.06-.688-1.171-.97-2.085-.948-3.45l.008-.718.005-.377c.022-1.895-.003-3.73-.31-5.605-.107-.75-.094-1.291.114-2.023.72-.923 1.733-.963 2.828-.749M100.141 22.66c.624.577.864 1.097.925 1.93-.021.66-.096.752-.554 1.3l-.483.386-.188.187c-1.042.184-1.544-.103-2.428-.667-.891-.547-1.455-.81-2.492-.594-.523.2-.897.509-1.302.887h-.377l-.165.41q-.194.484-.41.96c-.405 1.135-.38 2.485.139 3.58.562.946 1.226 1.694 2.321 1.979 1.313.15 2.276-.345 3.398-.957.623-.278 1.213-.271 1.881-.167.471.27.471.27.754.75.176.877.105 1.496-.33 2.282-1.126 1.15-2.839 1.776-4.42 1.875-2.42.033-4.164-.423-5.985-2.05-1.63-1.682-2.148-3.84-2.113-6.114.136-2.362 1.092-4.322 2.856-5.92 2.5-1.807 6.497-2.012 8.973-.057"/><path fill="#fff" d="M41.113 15.976c.638.254.738.512 1.036 1.124.101.496.173.958.22 1.459l.046.442c.167 1.806.175 3.616.171 5.428q0 .888.009 1.775a41.7 41.7 0 0 1-.634 7.376c1.269.149 2.516.233 3.794.246l.543.016c1.187.01 1.843-.166 2.827-.824h.377c.34-.716.462-1.27.377-2.06-.157-.468-.157-.468-.565-.75-.52-.062-.982-.033-1.509 0l-.165.633c-.212.679-.212.679-.589 1.053-.389-.046-.389-.046-.754-.187-.305-.605-.299-1.218-.188-1.873a3.2 3.2 0 0 1 1.696-1.498c1.087-.174 2.007-.152 2.923.492.732.64 1.144 1.21 1.29 2.19.075 1.222-.211 2.01-1.008 2.936-1.203 1.253-2.543 1.827-4.289 1.905l-.8.003h-.428c-1.088-.01-2.13-.137-3.202-.325-.75-.122-1.516-.245-2.215.103-1.336.107-1.336.107-1.98-.293-.393-.634-.388-1.036-.283-1.767.283-.445.283-.445.754-.75.501-.093 1-.134 1.508-.187.7-4.293.589-8.862.083-13.173-.07-.66-.111-1.315-.13-1.978l-.014-.511c.061-.443.061-.443.318-.784.31-.221.31-.221.78-.221"/><path fill="#E76F51" d="M79.243 15.145c.69.013 1.117.075 1.662.503 1.058 1.186.723 3.137.648 4.635a167 167 0 0 1-.283 3.079c-.584 4.682-.584 4.682.094 9.281.454.324.454.324.943.562.47.702.413 1.024.306 1.83-.178.633-.555.952-1.06 1.354l-.189.187c-.956.097-1.796.161-2.64-.328-.337-.377-.64-.764-.942-1.17l-.297.233-.398.305-.391.303c-1.351.904-3 .837-4.57.657-1.614-.435-2.61-1.502-3.482-2.868-1.226-2.205-1.273-4.718-.703-7.136.588-1.776 1.737-3.354 3.357-4.341.4-.18.785-.327 1.205-.45l.566-.187c.49-.023.971-.035 1.461-.035l.395-.007c.895-.002 1.63.137 2.48.417l-.009-.484q-.015-.893-.022-1.785l-.012-.771q-.009-.555-.012-1.112l-.01-.674c.127-1.186.685-1.967 1.903-1.998m-.895 1.58a14 14 0 0 0-.055 1.57l.002.464q.005.733.017 1.466l.008.994q.01 1.217.028 2.435l-.386-.198-.51-.258-.504-.257c-1.282-.589-2.8-.612-4.169-.302-1.744.672-2.915 2.116-3.693 3.757-.669 1.791-.659 4.22.035 5.99.627 1.271 1.491 2.462 2.817 3.067 1.392.415 2.836.34 4.134-.312 1.012-.649 1.682-1.468 2.276-2.498l.145.513.197.67.192.665c.205.546.311.819.785 1.149.66.11.66.11 1.32 0 .453-.392.546-.648.66-1.23l-.094-.456-.448-.257c-.495-.305-.495-.305-.73-.866-.763-3.474-.336-7.181.034-10.677.13-1.258.236-2.515.266-3.78l.019-.675c-.101-.723-.32-1.028-.838-1.536-.725-.14-1.09-.043-1.508.562"/><path fill="#fff" d="M55.146 22.472c.578.059.578.059.892.29.32.421.32.654.318 1.178l.002.52-.005.56.007 1.177q0 .927-.003 1.855 0 .895.008 1.79l-.008.555c.013 1.215.246 2.068 1.064 2.996.803.532 1.507.491 2.45.374 1.592-.776 2.322-2.203 3.017-3.745.23-.685.225-1.324.235-2.038l.019-.885q.014-.697.024-1.396.013-.674.028-1.347l.005-.424c.023-.984.023-.984.443-1.401.554-.07.554-.07 1.131 0 .363.374.546.632.635 1.147-.028 1.318-.163 2.614-.31 3.923-.118 1.062-.2 2.101-.136 3.17l.023.446c.072.896.223 1.596.731 2.363.387.263.387.263.754.374.067.597.05.865-.294 1.37-.628.432-1.032.41-1.78.316-.63-.444-.719-.996-.883-1.72l-.144-.617-.104-.472-.222.329c-.817 1.133-1.642 1.999-2.983 2.48-1.218.188-2.408.231-3.5-.398-1.203-.914-1.804-1.907-2.156-3.348-.084-.706-.1-1.407-.11-2.117l-.013-.595q-.012-.617-.02-1.235-.015-.948-.04-1.896L54.2 24.85l-.013-.574-.006-.529-.008-.466c.074-.657.346-.742.973-.808"/><path fill="#E76F51" d="m85.324 21.466.47-.003c.685.19.966.527 1.415 1.068.118.604.118.604.119 1.294l.004.384q.003.624-.005 1.248l.002.87q0 .912-.008 1.824-.008 1.166-.001 2.333.002.898-.003 1.797v.86q.001.603-.008 1.204l-.003.69c-.116.72-.334 1.034-.851 1.541-.701.165-1.366.118-2.074 0-.597-.41-.715-.63-.943-1.31a28 28 0 0 1-.036-1.198l-.005-.366a239 239 0 0 1-.013-1.61q-.008-1.085-.012-2.168a206 206 0 0 0-.015-1.791q-.014-1.083-.016-2.166a71 71 0 0 0-.008-.824c-.038-2.416-.038-2.416.553-3.155.534-.425.761-.543 1.438-.523"/><path fill="#fff" d="M95.512 22.308c1.458-.082 2.736.397 3.975 1.136.454.51.542.842.542 1.521-.212.363-.212.363-.566.562-.815 0-1.32-.424-1.933-.907-.86-.566-1.977-.51-2.968-.404-1.275.412-2.095 1.47-2.761 2.574-.295.702-.35 1.312-.338 2.061l.005.4c.043 1.313.28 2.406 1.184 3.41 1.13 1.037 2.087 1.38 3.62 1.355 1.114-.124 2.078-.573 3.003-1.185.507.07.507.07.943.187 0 .593-.06.988-.478 1.429-1.578 1.24-3.118 1.528-5.079 1.334-1.739-.259-3.058-1.184-4.151-2.533-1.311-1.923-1.355-4.386-.928-6.615.554-1.603 1.812-2.952 3.306-3.74.88-.382 1.674-.498 2.624-.585"/><path fill="#E76F51" d="M112.119 22.449c1.551 1.269 2.642 2.779 2.993 4.763.264 2.89-.099 5.132-1.886 7.491-.962 1.083-2.527 1.857-3.959 2.06-1.461.09-2.842.159-4.148-.561l-.427-.235c-1.053-.636-1.753-1.35-2.401-2.387l-.223-.356c-1.204-2.144-1.139-4.819-.531-7.135.576-1.716 2.014-3.27 3.593-4.14 2.177-.994 5.001-.854 6.989.5m-8.319 1.767c-1.559 2.06-1.732 4.25-1.509 6.742.153.703.381 1.26.755 1.873l.235.398c.741 1.103 1.88 2.114 3.163 2.537 1.778.294 3.616-.02 5.16-.964 1.35-1.084 2.174-2.553 2.565-4.219.209-2.227.055-4.122-1.35-5.965-1.344-1.547-2.492-2.101-4.515-2.317-1.79-.078-3.264.676-4.504 1.915"/><path fill="#E76F51" d="M109.88 24.321c1.18.677 1.942 1.657 2.315 2.957.349 1.944.161 3.64-.872 5.329-.697.943-1.603 1.425-2.743 1.62-1.18.072-1.964-.154-2.906-.864a5.52 5.52 0 0 1-1.742-3.597c-.008-2.126.259-3.26 1.746-4.815 1.183-1.11 2.721-1.283 4.202-.63m-3.947 1.803c-.824.995-1.121 2.181-1.067 3.462.194 1.302.691 2.428 1.763 3.233.675.358 1.315.444 2.073.386 1.2-.39 1.798-1.213 2.415-2.27.477-1.23.409-2.671-.071-3.886-.476-.933-1.216-1.617-2.156-2.084-1.357-.13-1.941.337-2.957 1.159M77.405 24.778c.505.267.505.267.943.749.155.683.152 1.35.141 2.048l-.005.587c-.076 2.161-.867 3.673-2.441 5.18-1.017.723-2.144.785-3.351.612-.988-.477-1.5-1.383-1.895-2.362-.438-1.553-.485-3.588.198-5.07 1.46-2.395 3.907-2.965 6.41-1.744m-5.043 1.662c-.923 1.274-.952 2.622-.801 4.143.262.93.675 1.891 1.508 2.435.787.116 1.2.061 1.909-.304.583-.479 1.058-.953 1.484-1.569l.269-.377c.904-1.486.762-3.005.674-4.68-2.002-1.14-3.312-1.445-5.043.352"/><path fill="#fff" d="M85.89 22.53c.517.515.424.806.425 1.526l.004.733-.003.796.001.813q0 .853-.002 1.705-.002 1.094.002 2.187v2.486q.002.563-.002 1.127v.648c-.049.527-.049.527-.426 1.089-.566.07-.566.07-1.131 0-.443-.66-.426-.935-.429-1.717l-.005-.722v-.78l-.002-.8v-1.675a285 285 0 0 0-.007-2.148q-.004-.825-.002-1.652 0-.396-.004-.792-.002-.553.002-1.107v-.636c.07-.519.07-.519.327-.868.435-.3.734-.278 1.251-.212"/><path fill="#E76F51" d="M86.11 16.09c.533.073.533.073 1.052.401.362.935.382 1.868.235 2.856-.32.651-.516.904-1.13 1.31-.916.133-1.66.134-2.463-.339-.62-.694-.606-1.357-.596-2.241.057-.569.252-.908.607-1.352l.233-.3c.609-.479 1.316-.36 2.061-.335"/><path fill="#fff" d="M86.078 17.1c.377.374.377.374.436 1.1-.016.502-.06.775-.271 1.24-.354.281-.354.281-.92.375-.565-.094-.565-.094-.919-.398-.275-.577-.304-.936-.212-1.568.528-.767.974-.867 1.886-.75M13.304 42.195l.377.187c-.272.63-.628 1.032-1.131 1.498 0-.749.325-1.087.754-1.686M21.976 38.636l.566.375-.189.749-.754-.187c.125-.31.25-.618.377-.937"/></svg>